<svg xmlns="http://www.w3.org/2000/svg" viewBox="0 -3 38 42" width="38" height="42" fill="#3498db"><path d="M31.88 8.68c.36 0 .7.2.87.5a.785.785 0 0 0 1.33 0c.2-.3.5-.5.87-.5.43 0 .77-.34.77-.76 0-.43-.33-.77-.76-.77-.55 0-1.1.2-1.53.52-.43-.33-.96-.52-1.52-.52a.764.764 0 1 0 .01 1.53zm-30.14 0c.36 0 .7.2.88.5.14.23.4.37.66.37s.5-.14.65-.37c.2-.3.52-.5.88-.5.43 0 .78-.34.78-.76a.77.77 0 0 0-.77-.77c-.55 0-1.1.2-1.52.52-.44-.33-.98-.52-1.54-.52-.42 0-.76.34-.76.77 0 .42.34.76.76.76Zm16.6-6.86a3.8 3.8 0 1 1 0 7.6 3.8 3.8 0 1 1 0-7.6m0 1.6a2.2 2.2 0 1 0 0 4.4 2.2 2.2 0 1 0 0-4.4"/><rect x="17.74" y="-1.5" width="1.2" height="2.5" rx=".6"/><rect x="17.74" y="10.2" width="1.2" height="2.5" rx=".6"/><rect x="11.2" y="5.02" width="2.5" height="1.2" rx=".6"/><rect x="23" y="5.02" width="2.5" height="1.2" rx=".6"/><g transform="rotate(45 18.34 5.62)"><rect x="17.74" y="-1.5" width="1.2" height="2.5" rx=".6"/><rect x="17.74" y="10.2" width="1.2" height="2.5" rx=".6"/><rect x="11.2" y="5.02" width="2.5" height="1.2" rx=".6"/><rect x="23" y="5.02" width="2.5" height="1.2" rx=".6"/></g><path d="m36.6 25.86-8.96-15.5a.73.73 0 0 0-.63-.35c-.25 0-.5.15-.62.37l-7 12.1a.737.737 0 0 0 1.28.73l1.56-2.7 1.85 1.36c.26.2.6.2.87 0L27 20.33l2.1 1.53c.1.1.27.15.42.15s.3-.04.43-.14l1.86-1.37 3.34 5.77c-.72 1.6-1.66 3.07-2.8 4.4a.733.733 0 0 0 .55 1.22c.2 0 .4-.08.55-.25 1.32-1.54 2.4-3.26 3.2-5.1.1-.22.07-.47-.04-.67zm-7.08-5.5-2.08-1.52c-.25-.2-.6-.2-.86 0l-2.07 1.53-1.55-1.15L27 12.2l4.07 7.02-1.55 1.15z"/><path d="M30.35 32.66a18.42 18.42 0 0 1-12 4.45c-7.26 0-13.8-4.23-16.8-10.83l3.33-5.78 1.85 1.36c.26.2.6.2.87 0l2.07-1.53 2.08 1.53c.13.1.28.15.43.15s.3-.04.43-.14l1.87-1.37 8.1 14.05c.2.35.66.47 1 .26.36-.2.47-.63.27-.98L10.3 10.37a.74.74 0 0 0-.63-.36c-.26 0-.5.15-.63.37L.1 25.87c-.12.2-.13.44-.04.65a19.896 19.896 0 0 0 31.24 7.25c.3-.27.34-.73.07-1.03a.727.727 0 0 0-1.02-.08M9.67 12.2l4.07 7.02-1.56 1.15-2.07-1.53c-.25-.2-.6-.2-.86 0l-2.07 1.53-1.56-1.15 4.07-7.03Z"/></svg>
